<?xml version="1.0" standalone="no"?>
<!DOCTYPE svg PUBLIC "-//W3C//DTD SVG 20010904//EN"
 "http://www.w3.org/TR/2001/REC-SVG-20010904/DTD/svg10.dtd">
<svg version="1.0" xmlns="http://www.w3.org/2000/svg"
 width="1280.000000pt" height="1002.000000pt" viewBox="0 0 1280.000000 1002.000000"
 preserveAspectRatio="xMidYMid meet">
<g transform="translate(0.000000,1002.000000) scale(0.100000,-0.100000)"
fill="#000000" stroke="none">
<path d="M4819 10016 c-2 -2 -55 -11 -117 -20 -277 -41 -487 -138 -723 -335
-280 -233 -590 -710 -662 -1016 -100 -424 -145 -872 -126 -1265 8 -193 19
-279 79 -639 39 -238 50 -287 50 -224 0 82 48 265 160 615 40 122 88 273 107
333 140 444 376 905 593 1157 60 70 197 182 291 239 222 133 442 134 704 3
112 -56 254 -151 366 -246 48 -40 140 -118 205 -173 65 -55 173 -149 239 -210
216 -197 298 -259 426 -319 119 -57 184 -69 354 -70 150 -1 151 -1 216 31 74
37 111 77 168 185 58 108 74 175 75 303 1 125 -15 183 -90 342 -185 390 -568
732 -1129 1008 -338 166 -561 234 -972 294 -70 11 -206 15 -214 7z"/>
<path d="M8865 9594 c-283 -63 -527 -213 -686 -422 -62 -82 -140 -235 -173
-339 -142 -455 110 -1006 559 -1219 180 -85 311 -116 500 -117 148 0 243 13
367 54 329 107 579 347 693 667 52 145 59 190 59 342 -1 128 -4 156 -28 235
-37 125 -123 294 -200 396 -137 181 -344 314 -598 385 -120 34 -380 43 -493
18z"/>
<path d="M12701 7646 c-17 -73 -44 -139 -116 -285 -180 -365 -351 -624 -574
-869 -81 -89 -347 -324 -521 -461 -222 -174 -495 -339 -647 -390 -198 -67
-412 27 -627 274 -85 99 -162 252 -266 535 -39 107 -92 241 -116 298 -147 338
-331 514 -574 547 -184 25 -415 -206 -491 -491 -29 -110 -36 -307 -15 -435 19
-119 73 -298 132 -444 178 -434 519 -843 931 -1116 184 -121 350 -169 589
-169 251 0 427 48 719 198 266 137 513 321 735 549 281 287 441 525 634 945
164 356 224 530 278 798 28 140 32 195 19 277 -5 37 -13 128 -17 201 -7 128
-8 132 -29 132 -20 0 -25 -10 -44 -94z"/>
<path d="M4151 5865 c-127 -23 -231 -74 -300 -146 -39 -41 -106 -173 -127
-249 -27 -100 -29 -251 -5 -370 46 -225 137 -354 431 -613 69 -61 129 -116
133 -123 5 -9 -64 -91 -215 -256 -358 -390 -682 -720 -1398 -1428 -370 -366
-871 -872 -1113 -1125 -474 -495 -773 -796 -1236 -1245 -161 -156 -289 -286
-282 -288 70 -23 606 276 1766 988 437 268 604 369 870 523 428 248 1322 777
1495 885 369 230 648 424 780 542 100 89 185 154 410 315 91 65 193 140 227
166 35 27 70 49 78 49 20 0 128 -55 240 -120 101 -60 264 -182 319 -238 34
-36 39 -48 49 -116 13 -90 7 -108 -74 -206 -70 -86 -184 -187 -288 -257 -46
-30 -226 -129 -400 -218 -174 -90 -458 -238 -631 -330 -498 -263 -1003 -505
-1305 -625 -93 -37 -267 -123 -309 -153 l-31 -22 40 -7 c70 -14 344 -10 535 6
650 58 786 79 1128 175 97 27 323 89 502 136 799 212 1127 338 1460 560 345
229 582 498 706 797 29 71 34 95 34 164 0 212 -105 426 -369 749 -254 311
-524 589 -786 810 -72 60 -162 139 -200 175 -308 287 -820 662 -1100 806 -119
62 -520 227 -625 258 -70 21 -231 46 -290 45 -25 0 -78 -7 -119 -14z"/>
</g>
</svg>
